.
..............................Site Info...........................

 -   http://www.scenetime.com  *_*   

Good news ! SceneTime will open sign up on Easter day for one day . Its a good chance to get on on Easter day .

Scenetime .Always on time . friendly online private torrent community ..

     We care to share . Join us on  http://www.scenetime.com 

    Be the first to get new release at  http://www.scenetime.com

        Seed back for speed


...................................NFO:.................................................[img]http://i.imgur.com/ltkDW.jpg[/img]

[b]The.Witches.of.Oz.2011.BRRip.XViD.AC3-ADTRG[/b]

Dorothy Gale discovers that her best selling novels are actually based on suppressed childhood memories of her time in Oz, and that she may be in danger of experiencing it all over again.  

[url]http://www.imdb.com/title/tt1592287/[/url]

Source -   The.Witches.of.Oz.2011.720p.BRRip.XViD.AC3-ADTRG  Thanks  bro

Complete name                            : The.Witches.of.Oz.2011.BRRip.XViD.AC3-ADTRG.avi
Format                                   : AVI
Format/Info                              : Audio Video Interleave
Format profile                           : OpenDML
File size                                : 2.53 GiB
Duration                                 : 2h 45mn
Overall bit rate                         : 2 190 Kbps
Writing library                          : VirtualDub build 34703/release

Video
ID                                       : 0
Format                                   : MPEG-4 Visual
Codec ID                                 : XVID
Duration                                 : 2h 45mn
Bit rate                                 : 1 795 Kbps
Width                                    : 720 pixels
Height                                   : 400 pixels
Display aspect ratio                     : 16:9
Frame rate                               : 23.976 fps
Stream size                              : 2.08 GiB (82%)

Audio
ID                                       : 1
Format                                   : AC-3
Bit rate                                 : 384 Kbps
Channel(s)                               : 6 channels
Channel positions                        : Front: L C R, Side: L R, LFE
Stream size                              : 455 MiB (18%)



Encoder - LiMeY
Good things come in small packages, So feel the wrath of my compression

[img]http://i.imgur.com/uK8Fr.jpg[/img]


[IMG]http://i.imgur.com/2739o.gif?1?8830[/IMG]

Dont fear the Atomic Dragon, Embrace it  :)


Greetz to DragonMaster,cOOkies,Mr Geek,DBratt420,AnimeKing,Cush,NoWoRRiEs Rayne, Mr & Mrs IrNbRu and the rest of the crew

Respect to CM8,Goon,Hope,mSD,InfernO,legend-rg and maybe a few more ;)